<svg xmlns="http://www.w3.org/2000/svg" width="430" height="430" style="width:100%;height:100%;transform:translate3d(0,0,0);content-visibility:visible" viewBox="0 0 430 430"><defs><clipPath id="m"><path d="M0 0h430v430H0z"/></clipPath><clipPath id="y"><path d="M0 0h430v430H0z"/></clipPath><clipPath id="w"><path d="M0 0h430v430H0z"/></clipPath><clipPath id="r"><path d="M0 0h430v430H0z"/></clipPath><clipPath id="s"><path d="M0 0h430v430H0z"/></clipPath><clipPath id="n"><path d="M0 0h430v430H0z"/></clipPath><clipPath id="o"><path d="M0 0h430v430H0z"/></clipPath><path id="b" style="display:none"/><path id="d" fill="red" d="m259.121 142.753-17.996 56.122 87.747 18.876-109.747 57.156v-54.032h-33.528l73.524-78.122z" style="display:block"/><path id="f" style="display:none"/><path id="h" style="display:none"/><path id="k" style="display:none"/><path id="i" style="display:none"/><path id="l" style="display:none"/><mask id="z" mask-type="alpha"><g filter="url(#a)"><path fill="#fff" d="M0 0h430v430H0z" opacity="0"/><use xmlns:ns1="http://www.w3.org/1999/xlink" ns1:href="#b"/></g></mask><mask id="x" mask-type="alpha"><g filter="url(#c)"><path fill="#fff" d="M0 0h430v430H0z" opacity="0"/><use xmlns:ns2="http://www.w3.org/1999/xlink" ns2:href="#d"/></g></mask><mask id="v" mask-type="alpha"><g filter="url(#e)"><path fill="#fff" d="M0 0h430v430H0z" opacity="0"/><use xmlns:ns3="http://www.w3.org/1999/xlink" ns3:href="#f"/></g></mask><mask id="u" mask-type="alpha"><g filter="url(#g)"><path fill="#fff" d="M0 0h430v430H0z" opacity="0"/><use xmlns:ns4="http://www.w3.org/1999/xlink" ns4:href="#h"/></g></mask><mask id="t" mask-type="alpha"><use xmlns:ns5="http://www.w3.org/1999/xlink" ns5:href="#i"/></mask><mask id="q" mask-type="alpha"><g filter="url(#j)"><path fill="#fff" d="M0 0h430v430H0z" opacity="0"/><use xmlns:ns6="http://www.w3.org/1999/xlink" ns6:href="#k"/></g></mask><mask id="p" mask-type="alpha"><use xmlns:ns7="http://www.w3.org/1999/xlink" ns7:href="#l"/></mask><filter id="a" width="100%" height="100%" x="0%" y="0%" filterUnits="objectBoundingBox"><feComponentTransfer in="SourceGraphic"><feFuncA tableValues="1.0 0.0" type="table"/></feComponentTransfer></filter><filter id="c" width="100%" height="100%" x="0%" y="0%" filterUnits="objectBoundingBox"><feComponentTransfer in="SourceGraphic"><feFuncA tableValues="1.0 0.0" type="table"/></feComponentTransfer></filter><filter id="e" width="100%" height="100%" x="0%" y="0%" filterUnits="objectBoundingBox"><feComponentTransfer in="SourceGraphic"><feFuncA tableValues="1.0 0.0" type="table"/></feComponentTransfer></filter><filter id="g" width="100%" height="100%" x="0%" y="0%" filterUnits="objectBoundingBox"><feComponentTransfer in="SourceGraphic"><feFuncA tableValues="1.0 0.0" type="table"/></feComponentTransfer></filter><filter id="j" width="100%" height="100%" x="0%" y="0%" filterUnits="objectBoundingBox"><feComponentTransfer in="SourceGraphic"><feFuncA tableValues="1.0 0.0" type="table"/></feComponentTransfer></filter></defs><g clip-path="url(#m)"><g clip-path="url(#n)" style="display:none"><path class="senary" style="display:none"/><path class="senary" style="mix-blend-mode:multiply;display:none"/><path class="tertiary" style="display:none"/><path class="tertiary" style="mix-blend-mode:multiply;display:none"/><path class="quaternary" style="display:none"/><path class="quaternary" style="mix-blend-mode:multiply;display:none"/><path fill="none" class="primary" style="display:none"/><g style="mix-blend-mode:multiply;display:none"><path class="tertiary"/><path fill="none" class="tertiary"/></g><g clip-path="url(#o)" mask="url(#p)" style="display:none"><g style="display:none"><path class="secondary"/><path fill="none" class="secondary"/></g><g style="display:none"><path class="secondary"/><path fill="none" class="secondary"/></g><g mask="url(#q)" style="mix-blend-mode:multiply;display:none"><path class="secondary"/><path fill="none" class="secondary"/></g></g><path fill="none" class="primary" style="display:none"/><path fill="none" class="primary" style="display:none"/></g><g clip-path="url(#r)" style="display:none"><path class="senary" style="display:none"/><path class="senary" style="mix-blend-mode:multiply;display:none"/><path class="tertiary" style="display:none"/><g style="mix-blend-mode:multiply;display:none"><path class="tertiary"/><path class="tertiary"/></g><g clip-path="url(#s)" mask="url(#t)" style="display:none"><path class="quaternary" style="display:none"/><path class="quaternary" style="mix-blend-mode:multiply;display:none"/></g><g style="display:none"><path class="secondary"/><path fill="none" class="secondary"/></g><g mask="url(#u)" style="mix-blend-mode:multiply;display:none"><path class="secondary"/><path fill="none" class="secondary"/></g><path fill="none" class="primary" style="display:none"/><g style="display:none"><path class="secondary"/><path fill="none" class="secondary"/></g><g mask="url(#v)" style="mix-blend-mode:multiply;display:none"><path class="secondary"/><path fill="none" class="secondary"/></g><path fill="none" class="primary" style="display:none"/><g style="display:none"><path class="quaternary"/><path class="quaternary" style="mix-blend-mode:multiply"/><path class="secondary"/><path class="secondary" style="mix-blend-mode:multiply"/><path class="quinary"/><path class="quinary" style="mix-blend-mode:multiply"/><path fill="none" class="primary"/></g><g style="display:none"><path class="secondary"/><path class="secondary" style="mix-blend-mode:multiply"/><path class="quinary"/><path class="quinary" style="mix-blend-mode:multiply"/><path fill="none" class="primary"/></g><g style="display:none"><path class="quinary"/><path class="quinary" style="mix-blend-mode:multiply"/><path fill="none" class="primary"/></g><g style="display:none"><path class="quinary"/><path class="quinary" style="mix-blend-mode:multiply"/><path fill="none" class="primary"/></g><path fill="none" class="primary" style="display:none"/><path fill="none" class="primary" style="display:none"/></g><g clip-path="url(#w)" style="display:block"><path fill="#EBE6EF" d="M-45 2v16h90V2c0-11.046-8.954-20-20-20h-50c-11.046 0-20 8.954-20 20z" class="senary" style="display:block" transform="translate(215 43)"/><g opacity=".4" style="mix-blend-mode:multiply;display:block"><path fill="#EBE6EF" d="M170 45v16h45V25h-25c-11.046 0-20 8.954-20 20z" class="senary" opacity="1"/></g><path fill="#3A3347" d="M-70 144.75c-11.046 0-20-8.954-20-20v-269.5H90v269.5c0 11.046-8.954 20-20 20H-70z" class="tertiary" style="display:block" transform="translate(215 255.25)"/><g opacity=".5" style="mix-blend-mode:multiply;display:block"><path fill="#3A3347" d="M145 400h35c-11.046 0-20-8.954-20-20V110.5h-35V380c0 11.046 8.954 20 20 20z" class="tertiary" opacity="1"/></g><path fill="#F24C00" d="M70-35c11.046 0 20 8.954 20 20v50H-90v-50c0-11.046 8.954-20 20-20H70z" class="quaternary" style="display:block" transform="translate(215 85)"/><g opacity=".5" style="mix-blend-mode:multiply;display:block"><path fill="#F24C00" d="M160 120h-35V70c0-11.046 8.954-20 20-20h35c-11.046 0-20 8.954-20 20v50z" class="quaternary" opacity="1"/></g><path fill="none" stroke="#121331" stroke-linecap="round" stroke-linejoin="round" stroke-width="7" d="M25-187.5c11.046 0 20 8.954 20 20v5h25c11.046 0 20 8.954 20 20v310c0 11.046-8.954 20-20 20H-70c-11.046 0-20-8.954-20-20v-310c0-11.046 8.954-20 20-20h25v-5c0-11.046 8.954-20 20-20h50z" class="primary" style="display:block" transform="translate(215 212.5)"/><g style="display:block"><path fill="#FFC738" d="M226 164.5V214h44l-66 71.5V236h-44l66-71.5z" class="secondary"/><path fill="none" stroke="#FFC738" stroke-linecap="round" stroke-linejoin="round" stroke-width="4.4" d="M226 164.5V214h44l-66 71.5V236h-44l66-71.5z" class="secondary"/></g><g opacity=".5" style="mix-blend-mode:multiply;display:block"><g mask="url(#x)" opacity="1"><path fill="#FFC738" d="M226 164.5V214h44l-66 71.5V236h-44l66-71.5z" class="secondary"/><path fill="none" stroke="#FFC738" stroke-linecap="round" stroke-linejoin="round" stroke-width="4.4" d="M226 164.5V214h44l-66 71.5V236h-44l66-71.5z" class="secondary"/></g></g><path fill="none" stroke="#121331" stroke-linecap="round" stroke-linejoin="round" stroke-width="7" d="M10-55v45h40l-60 65V10h-40l60-65z" class="primary" style="display:block" transform="matrix(1.1 0 0 1.1 215 225)"/><path fill="none" stroke="#121331" stroke-width="7" d="M-44-165h90.5" class="primary" style="display:block" transform="translate(215 215)"/></g><g clip-path="url(#y)" style="display:none"><path class="senary" style="display:none"/><path class="senary" style="mix-blend-mode:multiply;display:none"/><path class="tertiary" style="display:none"/><path class="tertiary" style="mix-blend-mode:multiply;display:none"/><path class="quaternary" style="display:none"/><path class="quaternary" style="mix-blend-mode:multiply;display:none"/><g style="display:none"><path class="secondary"/><path fill="none" class="secondary"/></g><g mask="url(#z)" style="mix-blend-mode:multiply;display:none"><path class="secondary"/><path fill="none" class="secondary"/></g><path fill="none" class="primary" style="display:none"/><path fill="none" class="primary" style="display:none"/><path fill="none" class="primary" style="display:none"/></g></g></svg>